<svg width="17" height="21" viewBox="0 0 17 21" fill="none" xmlns="http://www.w3.org/2000/svg">
<path d="M16 9.90719L8.90834 18.3791C8.03956 19.4169 6.86124 20 5.6326 20C4.40396 20 3.22564 19.4169 2.35686 18.3791C1.48808 17.3412 1 15.9335 1 14.4658C1 12.998 1.48808 11.5904 2.35686 10.5525L9.44851 2.08062C10.0277 1.38871 10.8132 1 11.6323 1C12.4514 1 13.237 1.38871 13.8162 2.08062C14.3954 2.77254 14.7207 3.71097 14.7207 4.68948C14.7207 5.66799 14.3954 6.60643 13.8162 7.29834L6.7168 15.7702C6.4272 16.1162 6.03443 16.3105 5.62488 16.3105C5.21534 16.3105 4.82256 16.1162 4.53297 15.7702C4.24338 15.4243 4.08068 14.955 4.08068 14.4658C4.08068 13.9765 4.24338 13.5073 4.53297 13.1614L11.0845 5.344" stroke="#A5ACB9" stroke-width="1.5" stroke-linecap="round" stroke-linejoin="round"/>
</svg>
