<svg width="26" height="24" viewBox="0 0 26 24" fill="none" xmlns="http://www.w3.org/2000/svg">
  <path
    d="M13.1597 2.91C9.73104 2.91 6.94462 5.6 6.94462 8.91V11.8C6.94462 12.41 6.6753 13.34 6.35419 13.86L5.16297 15.77C4.42752 16.95 4.93508 18.26 6.28168 18.7C10.7462 20.14 15.5629 20.14 20.0273 18.7C21.2807 18.3 21.8297 16.87 21.1461 15.77L19.9548 13.86C19.6441 13.34 19.3748 12.41 19.3748 11.8V8.91C19.3748 5.61 16.578 2.91 13.1597 2.91Z"
    stroke="#858585" stroke-width="1.5" stroke-miterlimit="10" stroke-linecap="round" />
  <path
    d="M15.076 3.2C14.7549 3.11 14.4235 3.04 14.0816 3C13.0872 2.88 12.1342 2.95 11.2434 3.2C11.5438 2.46 12.2896 1.94 13.1597 1.94C14.0298 1.94 14.7756 2.46 15.076 3.2Z"
    stroke="#858585" stroke-width="1.5" stroke-miterlimit="10" stroke-linecap="round"
    stroke-linejoin="round" />
  <path
    d="M16.2673 19.06C16.2673 20.71 14.8689 22.06 13.1597 22.06C12.3103 22.06 11.5231 21.72 10.9637 21.18C10.4044 20.64 10.0522 19.88 10.0522 19.06"
    stroke="#858585" stroke-width="1.5" stroke-miterlimit="10" />
  <circle cx="18.7089" cy="4" r="3" fill="#D8727D" />
</svg>