<svg width="64" height="65" viewBox="0 0 64 65" fill="none" xmlns="http://www.w3.org/2000/svg">
  <ellipse cx="32" cy="32.5" rx="32" ry="32.5" fill="black" />
  <path
    d="M40.4001 25.6134C40.2767 25.4898 40.1302 25.3917 39.9689 25.3248C39.8076 25.2579 39.6347 25.2235 39.4601 25.2235C39.2854 25.2235 39.1125 25.2579 38.9512 25.3248C38.7899 25.3917 38.6434 25.4898 38.5201 25.6134L32.0001 32.1201L25.4801 25.6001C25.3566 25.4766 25.2101 25.3787 25.0488 25.3119C24.8875 25.2451 24.7146 25.2107 24.5401 25.2107C24.3655 25.2107 24.1926 25.2451 24.0313 25.3119C23.87 25.3787 23.7235 25.4766 23.6001 25.6001C23.4766 25.7235 23.3787 25.87 23.3119 26.0313C23.2451 26.1926 23.2107 26.3655 23.2107 26.5401C23.2107 26.7146 23.2451 26.8875 23.3119 27.0488C23.3787 27.2101 23.4766 27.3566 23.6001 27.4801L30.1201 34.0001L23.6001 40.5201C23.4766 40.6435 23.3787 40.79 23.3119 40.9513C23.2451 41.1126 23.2107 41.2855 23.2107 41.4601C23.2107 41.6346 23.2451 41.8075 23.3119 41.9688C23.3787 42.1301 23.4766 42.2766 23.6001 42.4001C23.7235 42.5235 23.87 42.6214 24.0313 42.6882C24.1926 42.755 24.3655 42.7894 24.5401 42.7894C24.7146 42.7894 24.8875 42.755 25.0488 42.6882C25.2101 42.6214 25.3566 42.5235 25.4801 42.4001L32.0001 35.8801L38.5201 42.4001C38.6435 42.5235 38.79 42.6214 38.9513 42.6882C39.1126 42.755 39.2855 42.7894 39.4601 42.7894C39.6346 42.7894 39.8075 42.755 39.9688 42.6882C40.1301 42.6214 40.2766 42.5235 40.4001 42.4001C40.5235 42.2766 40.6214 42.1301 40.6882 41.9688C40.755 41.8075 40.7894 41.6346 40.7894 41.4601C40.7894 41.2855 40.755 41.1126 40.6882 40.9513C40.6214 40.79 40.5235 40.6435 40.4001 40.5201L33.8801 34.0001L40.4001 27.4801C40.9067 26.9734 40.9067 26.1201 40.4001 25.6134Z"
    fill="white" />
  <rect x="16.5" y="18.5" width="31" height="31" stroke="black" />
</svg>