<svg width="47" height="47" viewBox="0 0 47 47" fill="none" xmlns="http://www.w3.org/2000/svg">
  <path
    d="M28.7597 22.5453L12.5021 19.6813V40.8445C12.5023 41.0744 12.5477 41.302 12.6359 41.5144C12.7241 41.7267 12.8532 41.9196 13.0159 42.082C13.1786 42.2445 13.3717 42.3733 13.5842 42.4611C13.7967 42.5489 14.0244 42.594 14.2543 42.5938H42.3074C42.5376 42.5944 42.7656 42.5495 42.9784 42.4619C43.1912 42.3743 43.3847 42.2455 43.5477 42.0831C43.7107 41.9206 43.8401 41.7276 43.9285 41.515C44.0168 41.3025 44.0624 41.0747 44.0626 40.8445V33.0469L28.7597 22.5453Z"
    fill="#185C37" />
  <path
    d="M28.7597 4.40625H14.2543C14.0244 4.40606 13.7967 4.45115 13.5842 4.53896C13.3717 4.62676 13.1786 4.75556 13.0159 4.91799C12.8532 5.08043 12.7241 5.27332 12.6359 5.48566C12.5477 5.698 12.5023 5.92562 12.5021 6.15553V13.9531L28.7597 23.5L37.368 26.3641L44.0626 23.5V13.9531L28.7597 4.40625Z"
    fill="#21A366" />
  <path d="M12.5021 13.9531H28.7597V23.5H12.5021V13.9531Z" fill="#107C41" />
  <path opacity="0.1"
    d="M24.1375 12.0437H12.5021V35.9109H24.1375C24.6011 35.9086 25.0452 35.7237 25.3735 35.3963C25.7017 35.0688 25.8877 34.6252 25.8912 34.1616V13.793C25.8877 13.3294 25.7017 12.8858 25.3735 12.5583C25.0452 12.2309 24.6011 12.046 24.1375 12.0437Z"
    fill="black" />
  <path opacity="0.2"
    d="M23.1814 12.9984H12.5021V36.8656H23.1814C23.645 36.8633 24.089 36.6784 24.4173 36.351C24.7456 36.0235 24.9316 35.5799 24.935 35.1163V14.7477C24.9316 14.2841 24.7456 13.8405 24.4173 13.513C24.089 13.1856 23.645 13.0007 23.1814 12.9984Z"
    fill="black" />
  <path opacity="0.2"
    d="M23.1814 12.9984H12.5021V34.9562H23.1814C23.645 34.9539 24.089 34.769 24.4173 34.4416C24.7456 34.1142 24.9316 33.6706 24.935 33.2069V14.7477C24.9316 14.2841 24.7456 13.8405 24.4173 13.513C24.089 13.1856 23.645 13.0007 23.1814 12.9984Z"
    fill="black" />
  <path opacity="0.2"
    d="M22.2252 12.9984H12.5021V34.9562H22.2252C22.6888 34.9539 23.1329 34.769 23.4611 34.4416C23.7894 34.1142 23.9754 33.6706 23.9789 33.2069V14.7477C23.9754 14.2841 23.7894 13.8405 23.4611 13.513C23.1329 13.1856 22.6888 13.0007 22.2252 12.9984Z"
    fill="black" />
  <path
    d="M4.69119 12.9984H22.2251C22.6896 12.998 23.1352 13.1821 23.464 13.5101C23.7929 13.8381 23.978 14.2832 23.9788 14.7477V32.2523C23.978 32.7167 23.7929 33.1619 23.464 33.4899C23.1352 33.8179 22.6896 34.0019 22.2251 34.0015H4.69119C4.46115 34.0019 4.2333 33.957 4.02064 33.8693C3.80799 33.7815 3.6147 33.6528 3.45184 33.4903C3.28898 33.3279 3.15972 33.1349 3.07147 32.9225C2.98322 32.71 2.93769 32.4823 2.9375 32.2523V14.7477C2.93769 14.5177 2.98322 14.2899 3.07147 14.0775C3.15972 13.8651 3.28898 13.6721 3.45184 13.5096C3.6147 13.3472 3.80799 13.2184 4.02064 13.1307C4.2333 13.043 4.46115 12.998 4.69119 12.9984Z"
    fill="url(#paint0_linear_137_1597)" />
  <path
    d="M8.37195 29.1883L12.06 23.4837L8.68185 17.8114H11.3946L13.2379 21.4436C13.4083 21.7873 13.5317 22.0429 13.5875 22.2132H13.6124C13.7329 21.9371 13.8607 21.6713 13.9943 21.4113L15.9654 17.8173H18.4623L14.9975 23.4573L18.5504 29.1927H15.8934L13.7637 25.211C13.6648 25.0398 13.5808 24.8604 13.5126 24.6749H13.4773C13.4152 24.8557 13.3324 25.0286 13.2306 25.1904L11.0377 29.1883H8.37195Z"
    fill="white" />
  <path
    d="M42.3089 4.40625H28.7596V13.9531H44.0625V6.15553C44.0624 5.9255 44.0168 5.69776 43.9286 5.48532C43.8403 5.27289 43.7111 5.07993 43.5482 4.91748C43.3853 4.75502 43.1921 4.62625 42.9794 4.53854C42.7668 4.45082 42.5389 4.40587 42.3089 4.40625Z"
    fill="#33C481" />
  <path d="M28.7596 23.5H44.0625V33.0469H28.7596V23.5Z" fill="#107C41" />
  <defs>
    <linearGradient id="paint0_linear_137_1597" x1="6.60056" y1="11.6237" x2="20.3158" y2="35.3763"
      gradientUnits="userSpaceOnUse">
      <stop stop-color="#18884F" />
      <stop offset="0.5" stop-color="#117E43" />
      <stop offset="1" stop-color="#0B6631" />
    </linearGradient>
  </defs>
</svg>