<svg width="36" height="36" viewBox="0 0 36 36" fill="none" xmlns="http://www.w3.org/2000/svg">
<path d="M26.5781 3.44588L25.7693 4.14788L8.50838 19.125L7.94588 19.6526L8.22713 20.3906C8.22713 20.3906 9.49275 23.7656 7.06613 26.1911V26.2271L7.03125 26.2609L6.85575 26.4724L6.71513 26.613L2.25 30.9724L8.29688 32.625L10.6178 30.3041L10.863 30.0938L10.8979 30.0589H10.9339C13.3594 27.6322 16.7344 28.8979 16.7344 28.8979L17.4724 29.1791L18 28.6166L32.9771 11.3558L33.6803 10.5469L26.5781 3.44588ZM26.4375 6.53963L30.5865 10.6875L20.7428 22.0084L15.1178 16.3834L26.4375 6.53963ZM13.4291 17.8583L19.2656 23.6947L17.0854 26.226L10.8979 20.0385L13.4291 17.8583ZM10.7584 23.0625L14.0625 26.3678C12.6653 26.4195 10.9733 26.8594 9.387 28.4062C9.3645 28.4287 9.33863 28.4198 9.31613 28.4411L9.03488 28.6875L8.4375 28.0901L8.68388 27.8089L8.71875 27.738C10.2656 26.1518 10.7055 24.4597 10.7584 23.0625Z" fill="#5030E5"/>
</svg>
