<svg width="22" height="22" viewBox="0 0 22 22" fill="none" xmlns="http://www.w3.org/2000/svg">
  <path
    d="M16.5 19.2501L15.2167 17.9668L16.6604 16.5001H12.8333V14.6667H16.6604L15.2167 13.2001L16.5 11.9167L20.1667 15.5834L16.5 19.2501ZM2.75 19.2501V5.50008C2.75 4.99592 2.92967 4.56417 3.289 4.20483C3.64833 3.8455 4.07978 3.66614 4.58333 3.66675H15.5833C16.0875 3.66675 16.5192 3.84642 16.8786 4.20575C17.2379 4.56508 17.4173 4.99653 17.4167 5.50008V10.1522C17.2639 10.1216 17.1111 10.1024 16.9583 10.0944C16.8056 10.0865 16.6528 10.0828 16.5 10.0834C16.3472 10.0834 16.1944 10.0874 16.0417 10.0953C15.8889 10.1033 15.7361 10.1222 15.5833 10.1522V5.50008H4.58333V14.6667H11.0687C11.0382 14.8195 11.0189 14.9723 11.011 15.1251C11.0031 15.2779 10.9994 15.4306 11 15.5834C11 15.7362 11.004 15.889 11.0119 16.0417C11.0199 16.1945 11.0388 16.3473 11.0687 16.5001H5.5L2.75 19.2501ZM6.41667 9.16675H13.75V7.33342H6.41667V9.16675ZM6.41667 12.8334H11V11.0001H6.41667V12.8334Z"
    fill="white" />
</svg>