<svg width="32" height="32" viewBox="0 0 32 32" fill="none" xmlns="http://www.w3.org/2000/svg">
  <path
    d="M21.3333 10.6667V6.66667H10.6666V10.6667H7.99996V5.33334C7.99996 4.95556 8.12796 4.63867 8.38396 4.38267C8.63996 4.12667 8.95641 3.99912 9.3333 4H22.6666C23.0444 4 23.3613 4.128 23.6173 4.384C23.8733 4.64 24.0009 4.95645 24 5.33334V10.6667H21.3333ZM24 16.6667C24.3777 16.6667 24.6946 16.5387 24.9506 16.2827C25.2066 16.0267 25.3342 15.7102 25.3333 15.3333C25.3333 14.9556 25.2053 14.6387 24.9493 14.3827C24.6933 14.1267 24.3769 13.9991 24 14C23.6222 14 23.3053 14.128 23.0493 14.384C22.7933 14.64 22.6657 14.9564 22.6666 15.3333C22.6666 15.7111 22.7946 16.028 23.0506 16.284C23.3066 16.54 23.6231 16.6676 24 16.6667ZM10.6666 25.3333H21.3333V20H10.6666V25.3333ZM10.6666 28C9.9333 28 9.3053 27.7387 8.78263 27.216C8.25996 26.6933 7.99907 26.0658 7.99996 25.3333V22.6667H3.99996C3.62219 22.6667 3.3053 22.5387 3.0493 22.2827C2.7933 22.0267 2.66574 21.7102 2.66663 21.3333V14.6667C2.66663 13.5333 3.05552 12.5831 3.8333 11.816C4.61108 11.0489 5.55552 10.6658 6.66663 10.6667H25.3333C26.4666 10.6667 27.4169 11.0502 28.184 11.8173C28.9511 12.5844 29.3342 13.5342 29.3333 14.6667V21.3333C29.3333 21.7111 29.2053 22.028 28.9493 22.284C28.6933 22.54 28.3769 22.6676 28 22.6667H24V25.3333C24 26.0667 23.7386 26.6947 23.216 27.2173C22.6933 27.74 22.0657 28.0009 21.3333 28H10.6666ZM26.6666 20V14.6667C26.6666 14.2889 26.5386 13.972 26.2826 13.716C26.0266 13.46 25.7102 13.3324 25.3333 13.3333H6.66663C6.28885 13.3333 5.97196 13.4613 5.71596 13.7173C5.45996 13.9733 5.33241 14.2898 5.3333 14.6667V20H7.99996V17.3333H24V20H26.6666Z"
    fill="#858585" />
</svg>