<svg width="20" height="20" viewBox="0 0 20 20" fill="none" xmlns="http://www.w3.org/2000/svg">
<path fill-rule="evenodd" clip-rule="evenodd" d="M19.9357 2.02036C20.0716 1.66078 19.9893 1.25511 19.7241 0.976847C19.5764 0.821846 19.3864 0.72166 19.184 0.683796C19.1089 0.669762 19.0321 0.66429 18.9551 0.667762C18.8573 0.672097 18.76 0.690727 18.6664 0.723781L0.69196 6.54882C0.293025 6.6781 0.017133 7.04257 0.000990315 7.46162C-0.0151523 7.88067 0.231884 8.26528 0.619691 8.42487L8.3648 11.6122L11.7987 18.7662C11.9719 19.127 12.3435 19.3497 12.7433 19.3325C13.1431 19.3153 13.4942 19.0614 13.6357 18.687L19.9357 2.02036ZM8.88957 9.66538L3.89935 7.61179L14.9887 4.01801L8.88957 9.66538ZM10.321 11.0657L12.5909 15.7946L16.5632 5.28588L10.321 11.0657Z" fill="white"/>
</svg>
