<svg width="20" height="20" viewBox="0 0 20 20" fill="none" xmlns="http://www.w3.org/2000/svg">
  <path
    d="M10 15.2292L6.5417 17.3125C6.38892 17.4097 6.2292 17.4514 6.06253 17.4375C5.89586 17.4236 5.75003 17.3681 5.62503 17.2708C5.50003 17.1736 5.40281 17.0519 5.33336 16.9058C5.26392 16.7597 5.25003 16.5967 5.2917 16.4167L6.20836 12.4792L3.14586 9.83333C3.00697 9.70833 2.92031 9.56583 2.88586 9.40583C2.85142 9.24583 2.8617 9.08972 2.9167 8.9375C2.97225 8.78472 3.05559 8.65972 3.1667 8.5625C3.27781 8.46528 3.43059 8.40278 3.62503 8.375L7.6667 8.02083L9.2292 4.3125C9.29864 4.14583 9.40642 4.02083 9.55253 3.9375C9.69864 3.85417 9.84781 3.8125 10 3.8125C10.1528 3.8125 10.302 3.85417 10.4475 3.9375C10.5931 4.02083 10.7009 4.14583 10.7709 4.3125L12.3334 8.02083L16.375 8.375C16.5695 8.40278 16.7223 8.46528 16.8334 8.5625C16.9445 8.65972 17.0278 8.78472 17.0834 8.9375C17.1389 9.09028 17.1495 9.24667 17.115 9.40667C17.0806 9.56667 16.9936 9.70889 16.8542 9.83333L13.7917 12.4792L14.7084 16.4167C14.75 16.5972 14.7361 16.7606 14.6667 16.9067C14.5973 17.0528 14.5 17.1742 14.375 17.2708C14.25 17.3681 14.1042 17.4236 13.9375 17.4375C13.7709 17.4514 13.6111 17.4097 13.4584 17.3125L10 15.2292Z"
    fill="#FFD500" />
</svg>