<svg width="45" height="45" viewBox="0 0 45 45" fill="none" xmlns="http://www.w3.org/2000/svg">
  <path
    d="M40.5083 4.21875H13.6475C13.4274 4.21857 13.2094 4.26174 13.0059 4.34581C12.8025 4.42988 12.6176 4.5532 12.4618 4.70872C12.306 4.86424 12.1824 5.04893 12.098 5.25223C12.0136 5.45553 11.97 5.67347 11.9698 5.8936V13.3594L27.5356 17.9297L42.1873 13.3594V5.8936C42.1872 5.67335 42.1436 5.4553 42.0591 5.2519C41.9746 5.04851 41.8508 4.86376 41.6949 4.70822C41.539 4.55268 41.3539 4.42939 41.1503 4.34541C40.9467 4.26142 40.7285 4.21838 40.5083 4.21875Z"
    fill="#41A5EE" />
  <path d="M42.1873 13.3594H11.9698V22.5L27.5356 25.2422L42.1873 22.5V13.3594Z" fill="#2B7CD3" />
  <path d="M11.9698 22.5V31.6406L26.6202 33.4687L42.1873 31.6406V22.5H11.9698Z" fill="#185ABD" />
  <path
    d="M13.6475 40.7812H40.5069C40.7272 40.7818 40.9456 40.7389 41.1493 40.655C41.3531 40.5711 41.5383 40.4478 41.6944 40.2923C41.8505 40.1367 41.9744 39.9519 42.0589 39.7484C42.1435 39.5449 42.1872 39.3268 42.1873 39.1064V31.6406H11.9698V39.1064C11.97 39.3265 12.0136 39.5445 12.098 39.7478C12.1824 39.9511 12.306 40.1358 12.4618 40.2913C12.6176 40.4468 12.8025 40.5701 13.0059 40.6542C13.2094 40.7383 13.4274 40.7814 13.6475 40.7812Z"
    fill="#103F91" />
  <path opacity="0.1"
    d="M23.1102 11.5312H11.9698V34.3828H23.1102C23.5541 34.3806 23.9792 34.2036 24.2935 33.8901C24.6078 33.5766 24.7859 33.1519 24.7892 32.708V13.2061C24.7859 12.7622 24.6078 12.3375 24.2935 12.024C23.9792 11.7105 23.5541 11.5335 23.1102 11.5312Z"
    fill="black" />
  <path opacity="0.2"
    d="M22.1947 12.4453H11.9698V35.2969H22.1947C22.6386 35.2947 23.0638 35.1176 23.378 34.8041C23.6923 34.4906 23.8704 34.0659 23.8738 33.622V14.1202C23.8704 13.6763 23.6923 13.2515 23.378 12.938C23.0638 12.6246 22.6386 12.4475 22.1947 12.4453Z"
    fill="black" />
  <path opacity="0.2"
    d="M22.1947 12.4453H11.9698V33.4687H22.1947C22.6386 33.4665 23.0638 33.2895 23.378 32.976C23.6923 32.6625 23.8704 32.2378 23.8738 31.7939V14.1202C23.8704 13.6763 23.6923 13.2515 23.378 12.938C23.0638 12.6246 22.6386 12.4475 22.1947 12.4453Z"
    fill="black" />
  <path opacity="0.2"
    d="M21.2792 12.4453H11.9698V33.4687H21.2792C21.7231 33.4665 22.1483 33.2895 22.4626 32.976C22.7769 32.6625 22.955 32.2378 22.9583 31.7939V14.1202C22.955 13.6763 22.7769 13.2515 22.4626 12.938C22.1483 12.6246 21.7231 12.4475 21.2792 12.4453Z"
    fill="black" />
  <path
    d="M4.49156 12.4453H21.2794C21.7241 12.4449 22.1507 12.6211 22.4656 12.9352C22.7804 13.2493 22.9577 13.6755 22.9584 14.1202V30.8798C22.9577 31.3245 22.7804 31.7508 22.4656 32.0648C22.1507 32.3789 21.7241 32.5551 21.2794 32.5547H4.49156C4.27132 32.5551 4.05316 32.512 3.84955 32.428C3.64595 32.344 3.46089 32.2208 3.30495 32.0652C3.14902 31.9097 3.02527 31.7249 2.94077 31.5215C2.85627 31.3181 2.81268 31.1001 2.8125 30.8798V14.1202C2.81268 13.8999 2.85627 13.6819 2.94077 13.4785C3.02527 13.2751 3.14902 13.0903 3.30495 12.9348C3.46089 12.7792 3.64595 12.656 3.84955 12.572C4.05316 12.488 4.27132 12.4449 4.49156 12.4453Z"
    fill="url(#paint0_linear_77_2651)" />
  <path
    d="M9.70315 25.2956C9.73549 25.5543 9.75799 25.7793 9.76784 25.972H9.80721C9.82127 25.7892 9.85221 25.5684 9.89862 25.311C9.94502 25.0537 9.98581 24.8357 10.0238 24.6571L11.7886 17.0535H14.0724L15.9005 24.5432C16.007 25.0065 16.0831 25.4763 16.1283 25.9495H16.1592C16.1928 25.4888 16.2562 25.0308 16.3491 24.5784L17.8102 17.0437H19.8872L17.3222 27.9393H14.8936L13.1541 20.7309C13.1035 20.5228 13.0463 20.2518 12.9825 19.9181C12.9188 19.5843 12.8794 19.3406 12.8644 19.1868H12.8349C12.8152 19.364 12.7758 19.627 12.7167 19.9757C12.6577 20.3259 12.6113 20.5832 12.5761 20.752L10.9406 27.9435H8.47127L5.89221 17.0535H8.00159L9.59206 24.6726C9.63952 24.8783 9.6766 25.0862 9.70315 25.2956Z"
    fill="white" />
  <defs>
    <linearGradient id="paint0_linear_77_2651" x1="6.31969" y1="11.1291" x2="19.4512" y2="33.8709"
      gradientUnits="userSpaceOnUse">
      <stop stop-color="#2368C4" />
      <stop offset="0.5" stop-color="#1A5DBE" />
      <stop offset="1" stop-color="#1146AC" />
    </linearGradient>
  </defs>
</svg>