<svg width="85" height="26" viewBox="0 0 85 26" fill="none" xmlns="http://www.w3.org/2000/svg">
  <path opacity="0.4"
    d="M16.0414 14.15H13.8714C12.0914 14.15 10.6414 12.71 10.6414 10.92V8.75C10.6414 8.34 10.3114 8 9.89138 8H6.72138C4.41138 8 2.54138 9.5 2.54138 12.18V18.82C2.54138 21.5 4.41138 23 6.72138 23H12.6114C14.9214 23 16.7914 21.5 16.7914 18.82V14.9C16.7914 14.48 16.4514 14.15 16.0414 14.15Z"
    fill="#5030E5" />
  <path
    d="M18.3614 3H16.3914H15.3014H12.4714C10.2114 3 8.38139 4.44 8.30139 7.01C8.36139 7.01 8.41139 7 8.47139 7H11.3014H12.3914H14.3614C16.6714 7 18.5414 8.5 18.5414 11.18V13.15V15.86V17.83C18.5414 17.89 18.5314 17.94 18.5314 17.99C20.7614 17.92 22.5414 16.44 22.5414 13.83V11.86V9.15V7.18C22.5414 4.5 20.6714 3 18.3614 3Z"
    fill="#5030E5" />
  <path
    d="M12.5214 8.14999C12.2114 7.83999 11.6814 8.04999 11.6814 8.47999V11.1C11.6814 12.2 12.6114 13.1 13.7514 13.1C14.4614 13.11 15.4514 13.11 16.3014 13.11C16.7314 13.11 16.9514 12.61 16.6514 12.31C15.5614 11.22 13.6214 9.26999 12.5214 8.14999Z"
    fill="#5030E5" />
  <path
    d="M35.4014 17.3C33.9614 15.8867 33.2414 14.12 33.2414 12C33.2414 9.88 33.9614 8.12 35.4014 6.72C36.8547 5.30667 38.7014 4.6 40.9414 4.6C43.4614 4.6 45.3947 5.48667 46.7414 7.26C47.3547 8.04667 47.788 8.92667 48.0414 9.9H44.9414C44.768 9.44667 44.5014 9.03333 44.1414 8.66C43.3014 7.82 42.2347 7.4 40.9414 7.4C39.6347 7.4 38.5547 7.83333 37.7014 8.7C36.8614 9.55333 36.4414 10.6533 36.4414 12C36.4414 13.4 36.848 14.52 37.6614 15.36C38.488 16.1867 39.5814 16.6 40.9414 16.6C42.3014 16.6 43.3947 16.1333 44.2214 15.2C44.5947 14.76 44.868 14.2933 45.0414 13.8H48.1414C47.8347 14.8533 47.3747 15.7867 46.7614 16.6C45.3214 18.4667 43.3814 19.4 40.9414 19.4C38.7014 19.4 36.8547 18.7 35.4014 17.3ZM49.8328 19V8.8H52.6328V12.6H53.8328L56.5328 8.8H59.6328L56.3328 13.5L59.9328 19H56.7328L54.1328 15H52.6328V19H49.8328ZM61.3759 17.82C60.4826 16.82 60.0359 15.5133 60.0359 13.9C60.0359 12.2867 60.4826 10.9867 61.3759 10C62.2826 9 63.4026 8.5 64.7359 8.5C65.6292 8.5 66.4359 8.76667 67.1559 9.3C67.4626 9.55333 67.7226 9.82 67.9359 10.1H68.0359V8.8H70.8359V19H68.0359V17.7H67.9359C67.7226 17.98 67.4626 18.2467 67.1559 18.5C66.4359 19.0333 65.6292 19.3 64.7359 19.3C63.4026 19.3 62.2826 18.8067 61.3759 17.82ZM63.6359 11.7C63.1692 12.2333 62.9359 12.9667 62.9359 13.9C62.9359 14.8333 63.1692 15.5667 63.6359 16.1C64.1026 16.6333 64.7026 16.9 65.4359 16.9C66.2092 16.9 66.8359 16.64 67.3159 16.12C67.7959 15.5867 68.0359 14.8467 68.0359 13.9C68.0359 12.9533 67.7959 12.22 67.3159 11.7C66.8359 11.1667 66.2092 10.9 65.4359 10.9C64.7026 10.9 64.1026 11.1667 63.6359 11.7ZM73.0359 19V8.8H75.8359V12.6H80.1359V8.8L82.9359 8.8V19H80.1359V15H75.8359V19H73.0359Z"
    fill="#222222" />
</svg>